<?xml version="1.0" encoding="UTF-8"?>
<svg version="1.1" xmlns="http://www.w3.org/2000/svg" width="32" height="32">
<path d="M0 0 C4.8846525 2.26787438 7.73212562 5.1153475 10 10 C10.75381535 15.5997712 10.77303575 20.33499991 8.375 25.5 C3.80134327 30.3143755 0.6912538 32.25156236 -6 32.5 C-12.6912538 32.25156236 -15.80134327 30.3143755 -20.375 25.5 C-22.77303575 20.33499991 -22.75381535 15.5997712 -22 10 C-17.52212837 0.3553534 -9.85292056 -1.32635469 0 0 Z " fill="#010457" transform="translate(22,0)"/>
<path d="M0 0 C1.134375 0.020625 2.26875 0.04125 3.4375 0.0625 C3.7675 1.7125 4.0975 3.3625 4.4375 5.0625 C3.7775 5.0625 3.1175 5.0625 2.4375 5.0625 C2.4375 4.0725 2.4375 3.0825 2.4375 2.0625 C0.7875 2.3925 -0.8625 2.7225 -2.5625 3.0625 C-1.77875 3.84625 -0.995 4.63 -0.1875 5.4375 C1.35416667 6.97916667 2.89583333 8.52083333 4.4375 10.0625 C3.88194444 14.61805556 3.88194444 14.61805556 2.4375 16.0625 C-0.23308851 16.20365161 -2.88682238 16.10497107 -5.5625 16.0625 C-5.8925 14.4125 -6.2225 12.7625 -6.5625 11.0625 C-5.5725 10.7325 -4.5825 10.4025 -3.5625 10.0625 C-3.5625 11.0525 -3.5625 12.0425 -3.5625 13.0625 C-1.9125 13.0625 -0.2625 13.0625 1.4375 13.0625 C0.65375 12.27875 -0.13 11.495 -0.9375 10.6875 C-2.47916667 9.14583333 -4.02083333 7.60416667 -5.5625 6.0625 C-4.83351201 0.08479846 -4.83351201 0.08479846 0 0 Z " fill="#4AE1EA" transform="translate(21.5625,5.9375)"/>
<path d="M0 0 C1.99954746 -0.04254356 4.00041636 -0.04080783 6 0 C7.92770875 1.92770875 7.30577945 5.18351486 7.375 7.75 C7.33474436 15.6562085 7.33474436 15.6562085 4.6875 18.375 C2 20 2 20 -1 20 C-1 19.01 -1 18.02 -1 17 C0.32 16.67 1.64 16.34 3 16 C3.33 11.71 3.66 7.42 4 3 C2.68 2.67 1.36 2.34 0 2 C0 1.34 0 0.68 0 0 Z " fill="#49DEE9" transform="translate(7,6)"/>
<path d="M0 0 C3.86933162 0.57323431 6.15222057 2.38953552 9 5 C9 5.66 9 6.32 9 7 C7.35 7 5.7 7 4 7 C4 6.01 4 5.02 4 4 C3.01 4.33 2.02 4.66 1 5 C0.67 3.35 0.34 1.7 0 0 Z " fill="#040C5D" transform="translate(14,12)"/>
<path d="M0 0 C2.31 0 4.62 0 7 0 C7.33 1.65 7.66 3.3 8 5 C7.34 5 6.68 5 6 5 C6 4.01 6 3.02 6 2 C3.69 2 1.38 2 -1 2 C-0.67 1.34 -0.34 0.68 0 0 Z " fill="#4EECF2" transform="translate(18,6)"/>
<path d="M0 0 C2 3 2 3 2 5 C-1 7 -1 7 -4 7 C-4 6.01 -4 5.02 -4 4 C-2.68 3.67 -1.36 3.34 0 3 C0 2.01 0 1.02 0 0 Z " fill="#44CDDD" transform="translate(10,19)"/>
</svg>
